<svg xmlns="http://www.w3.org/2000/svg" width="1440" height="900"><path d="M615,363L614,601L875,356Z" fill="#bbcaff" stroke="#bbcaff" stroke-width="1.51"/><path d="M614,601L928,541L875,356Z" fill="#c0cdff" stroke="#c0cdff" stroke-width="1.51"/><path d="M614,601L875,850L928,541Z" fill="#c6d2ff" stroke="#c6d2ff" stroke-width="1.51"/><path d="M875,850L1129,647L928,541Z" fill="#ccd6ff" stroke="#ccd6ff" stroke-width="1.51"/><path d="M928,541L1260,335L875,356Z" fill="#c3cfff" stroke="#c3cfff" stroke-width="1.51"/><path d="M614,601L527,899L875,850Z" fill="#c7d2ff" stroke="#c7d2ff" stroke-width="1.51"/><path d="M277,576L527,899L614,601Z" fill="#bdcbff" stroke="#bdcbff" stroke-width="1.51"/><path d="M615,363L277,576L614,601Z" fill="#b8c8ff" stroke="#b8c8ff" stroke-width="1.51"/><path d="M875,356L617,4L615,363Z" fill="#b4c4ff" stroke="#b4c4ff" stroke-width="1.51"/><path d="M615,363L251,288L277,576Z" fill="#b1c2ff" stroke="#b1c2ff" stroke-width="1.51"/><path d="M869,-25L617,4L875,356Z" fill="#b0c2ff" stroke="#b0c2ff" stroke-width="1.51"/><path d="M1227,-27L869,-25L875,356Z" fill="#b6c6ff" stroke="#b6c6ff" stroke-width="1.51"/><path d="M1129,647L1260,335L928,541Z" fill="#c9d3ff" stroke="#c9d3ff" stroke-width="1.51"/><path d="M617,4L251,288L615,363Z" fill="#adbfff" stroke="#adbfff" stroke-width="1.51"/><path d="M1566,681L1490,252L1260,335Z" fill="#ced8ff" stroke="#ced8ff" stroke-width="1.51"/><path d="M875,850L1131,944L1129,647Z" fill="#d2daff" stroke="#d2daff" stroke-width="1.51"/><path d="M899,1236L1131,944L875,850Z" fill="#d7deff" stroke="#d7deff" stroke-width="1.51"/><path d="M1260,335L1227,-27L875,356Z" fill="#bfccff" stroke="#bfccff" stroke-width="1.51"/><path d="M277,576L187,933L527,899Z" fill="#beccff" stroke="#beccff" stroke-width="1.51"/><path d="M527,899L899,1236L875,850Z" fill="#d1daff" stroke="#d1daff" stroke-width="1.51"/><path d="M-103,613L187,933L277,576Z" fill="#b5c5ff" stroke="#b5c5ff" stroke-width="1.51"/><path d="M251,288L-103,613L277,576Z" fill="#adc0ff" stroke="#adc0ff" stroke-width="1.51"/><path d="M617,4L261,-106L251,288Z" fill="#a3b9ff" stroke="#a3b9ff" stroke-width="1.51"/><path d="M617,-422L261,-106L617,4Z" fill="#9cb5ff" stroke="#9cb5ff" stroke-width="1.51"/><path d="M814,-296L617,4L869,-25Z" fill="#a8bcff" stroke="#a8bcff" stroke-width="1.51"/><path d="M552,1245L899,1236L527,899Z" fill="#d3dbff" stroke="#d3dbff" stroke-width="1.51"/><path d="M1260,335L1490,252L1227,-27Z" fill="#c3cfff" stroke="#c3cfff" stroke-width="1.51"/><path d="M1566,681L1260,335L1129,647Z" fill="#d0d9ff" stroke="#d0d9ff" stroke-width="1.51"/><path d="M1227,-27L814,-296L869,-25Z" fill="#aec0ff" stroke="#aec0ff" stroke-width="1.51"/><path d="M187,933L552,1245L527,899Z" fill="#c9d4ff" stroke="#c9d4ff" stroke-width="1.51"/><path d="M1556,915L1129,647L1131,944Z" fill="#d9e0ff" stroke="#d9e0ff" stroke-width="1.51"/><path d="M1556,915L1566,681L1129,647Z" fill="#d9e0ff" stroke="#d9e0ff" stroke-width="1.51"/><path d="M899,1236L1168,1226L1131,944Z" fill="#dee4ff" stroke="#dee4ff" stroke-width="1.51"/><path d="M-92,-66L-82,259L251,288Z" fill="#9cb5ff" stroke="#9cb5ff" stroke-width="1.51"/><path d="M-82,259L-103,613L251,288Z" fill="#a5bbff" stroke="#a5bbff" stroke-width="1.51"/><path d="M-103,613L-7,954L187,933Z" fill="#b7c7ff" stroke="#b7c7ff" stroke-width="1.51"/><path d="M187,933L200,1272L552,1245Z" fill="#cbd5ff" stroke="#cbd5ff" stroke-width="1.51"/><path d="M814,-296L617,-422L617,4Z" fill="#a0b8ff" stroke="#a0b8ff" stroke-width="1.51"/><path d="M1227,-27L1221,-395L814,-296Z" fill="#acbfff" stroke="#acbfff" stroke-width="1.51"/><path d="M814,-296L1221,-395L617,-422Z" fill="#a0b8ff" stroke="#a0b8ff" stroke-width="1.51"/><path d="M1490,252L1466,-84L1227,-27Z" fill="#c0cdff" stroke="#c0cdff" stroke-width="1.51"/><path d="M1792,-4L1466,-84L1490,252Z" fill="#c5d1ff" stroke="#c5d1ff" stroke-width="1.51"/><path d="M1168,1226L1556,915L1131,944Z" fill="#e0e5ff" stroke="#e0e5ff" stroke-width="1.51"/><path d="M552,1245L200,1272L899,1236Z" fill="#d4ddff" stroke="#d4ddff" stroke-width="1.51"/><path d="M899,1236L1547,1250L1168,1226Z" fill="#e5e9ff" stroke="#e5e9ff" stroke-width="1.51"/><path d="M-7,954L200,1272L187,933Z" fill="#c2cfff" stroke="#c2cfff" stroke-width="1.51"/><path d="M1466,-84L1221,-395L1227,-27Z" fill="#b5c5ff" stroke="#b5c5ff" stroke-width="1.51"/><path d="M-82,259L-367,288L-103,613Z" fill="#9eb7ff" stroke="#9eb7ff" stroke-width="1.51"/><path d="M261,-106L-92,-66L251,288Z" fill="#9ab4ff" stroke="#9ab4ff" stroke-width="1.51"/><path d="M194,-359L-92,-66L261,-106Z" fill="#90aeff" stroke="#90aeff" stroke-width="1.51"/><path d="M617,-422L194,-359L261,-106Z" fill="#93b0ff" stroke="#93b0ff" stroke-width="1.51"/><path d="M1566,681L1763,605L1490,252Z" fill="#d6deff" stroke="#d6deff" stroke-width="1.51"/><path d="M1860,878L1763,605L1566,681Z" fill="#e1e6ff" stroke="#e1e6ff" stroke-width="1.51"/><path d="M1556,915L1860,878L1566,681Z" fill="#e3e8ff" stroke="#e3e8ff" stroke-width="1.51"/><path d="M1168,1226L1547,1250L1556,915Z" fill="#e7ebff" stroke="#e7ebff" stroke-width="1.51"/><path d="M200,1272L1547,1250L899,1236Z" fill="#dde3ff" stroke="#dde3ff" stroke-width="1.51"/><path d="M-392,8L-367,288L-82,259Z" fill="#93afff" stroke="#93afff" stroke-width="1.51"/><path d="M-103,613L-330,869L-7,954Z" fill="#b1c3ff" stroke="#b1c3ff" stroke-width="1.51"/><path d="M-7,954L-124,1281L200,1272Z" fill="#c3d0ff" stroke="#c3d0ff" stroke-width="1.51"/><path d="M-432,650L-330,869L-103,613Z" fill="#a9bdff" stroke="#a9bdff" stroke-width="1.51"/><path d="M1466,-84L1597,-426L1221,-395Z" fill="#b3c4ff" stroke="#b3c4ff" stroke-width="1.51"/><path d="M1887,234L1792,-4L1490,252Z" fill="#cdd7ff" stroke="#cdd7ff" stroke-width="1.51"/><path d="M194,-359L-116,-290L-92,-66Z" fill="#89aaff" stroke="#89aaff" stroke-width="1.51"/><path d="M-92,-66L-392,8L-82,259Z" fill="#90aeff" stroke="#90aeff" stroke-width="1.51"/><path d="M1763,605L1887,234L1490,252Z" fill="#d4dcff" stroke="#d4dcff" stroke-width="1.51"/><path d="M1763,605L1860,878L1887,234Z" fill="#dfe4ff" stroke="#dfe4ff" stroke-width="1.51"/><path d="M1768,1165L1860,878L1556,915Z" fill="#eaedff" stroke="#eaedff" stroke-width="1.51"/><path d="M-401,1182L-124,1281L-7,954Z" fill="#bccbff" stroke="#bccbff" stroke-width="1.51"/><path d="M200,1272L-124,1281L1547,1250Z" fill="#d5ddff" stroke="#d5ddff" stroke-width="1.51"/><path d="M-367,288L-432,650L-103,613Z" fill="#a1b8ff" stroke="#a1b8ff" stroke-width="1.51"/><path d="M1547,1250L1768,1165L1556,915Z" fill="#eceeff" stroke="#eceeff" stroke-width="1.51"/><path d="M-367,288L-392,8L-432,650Z" fill="#94b1ff" stroke="#94b1ff" stroke-width="1.51"/><path d="M-315,-330L-392,8L-92,-66Z" fill="#85a8ff" stroke="#85a8ff" stroke-width="1.51"/><path d="M1798,-267L1597,-426L1466,-84Z" fill="#bac9ff" stroke="#bac9ff" stroke-width="1.51"/><path d="M1221,-395L1597,-426L617,-422Z" fill="#a7bcff" stroke="#a7bcff" stroke-width="1.51"/><path d="M1792,-4L1798,-267L1466,-84Z" fill="#c1cfff" stroke="#c1cfff" stroke-width="1.51"/><path d="M1887,234L1798,-267L1792,-4Z" fill="#c9d4ff" stroke="#c9d4ff" stroke-width="1.51"/><path d="M-116,-290L-315,-330L-92,-66Z" fill="#84a7ff" stroke="#84a7ff" stroke-width="1.51"/><path d="M194,-359L-315,-330L-116,-290Z" fill="#83a6ff" stroke="#83a6ff" stroke-width="1.51"/><path d="M617,-422L-315,-330L194,-359Z" fill="#89aaff" stroke="#89aaff" stroke-width="1.51"/><path d="M-432,650L-401,1182L-330,869Z" fill="#adc0ff" stroke="#adc0ff" stroke-width="1.51"/><path d="M-330,869L-401,1182L-7,954Z" fill="#b5c6ff" stroke="#b5c6ff" stroke-width="1.51"/></svg>