<?xml version="1.0" encoding="UTF-8" standalone="no"?>
<svg
   xmlns:dc="http://purl.org/dc/elements/1.1/"
   xmlns:cc="http://creativecommons.org/ns#"
   xmlns:rdf="http://www.w3.org/1999/02/22-rdf-syntax-ns#"
   xmlns:svg="http://www.w3.org/2000/svg"
   xmlns="http://www.w3.org/2000/svg"
   viewBox="0 0 302.66461 136.01843"
   height="136.01843"
   width="302.66461"
   xml:space="preserve"
   id="svg815"
   version="1.1"><metadata
     id="metadata821"><rdf:RDF><cc:Work
         rdf:about=""><dc:format>image/svg+xml</dc:format><dc:type
           rdf:resource="http://purl.org/dc/dcmitype/StillImage" /><dc:title></dc:title></cc:Work></rdf:RDF></metadata><defs
     id="defs819"><clipPath
       id="clipPath831"
       clipPathUnits="userSpaceOnUse"><path
         id="path829"
         d="M 0,612 H 792 V 0 H 0 Z" /></clipPath></defs><g
     transform="matrix(1.3333333,0,0,-1.3333333,-142.2247,489.22922)"
     id="g823"><g
       style="fill:#daaa00;fill-opacity:1"
       transform="translate(304.8965,332.7344)"
       id="g833"><path
         id="path835"
         style="fill:#daaa00;fill-opacity:1;fill-rule:nonzero;stroke:none"
         d="M 0,0 3.612,9.555 4.241,9.011 c 2.217,-1.808 5.226,-3.347 8.063,-3.407 2.539,-0.06 3.778,0.616 3.44,2.764 -0.249,1.605 -2.06,1.887 -3.191,2.111 l -2.485,0.496 c -4.83,0.903 -8.893,3.883 -8.893,9.527 0,8.538 7.36,13.325 14.759,13.325 3.888,0 7.453,-0.99 10.794,-3.161 l -3.137,-8.467 c -1.72,1.24 -4.321,2.983 -7.619,3.103 -1.083,0.041 -3.562,-0.529 -2.769,-3.047 0.343,-1.072 1.881,-1.523 2.824,-1.753 l 2.802,-0.675 c 5.234,-1.219 9.025,-4.199 9.025,-10.296 0,-8.58 -7.403,-12.828 -14.758,-12.828 C 8.807,-3.297 3.837,-2.076 0,0" /></g><path
       id="path837"
       style="fill:#daaa00;fill-opacity:1;fill-rule:nonzero;stroke:none"
       d="m 289.632,365.976 h 12.603 v -36 h -12.603 z" /><g
       style="fill:#daaa00;fill-opacity:1"
       transform="translate(275.4268,365.9756)"
       id="g839"><path
         id="path841"
         style="fill:#daaa00;fill-opacity:1;fill-rule:nonzero;stroke:none"
         d="M 0,0 H 12.91 L -0.271,-36 h -10.476 l -13.14,36 h 12.866 l 5.511,-21.722 z" /></g><g
       style="fill:#daaa00;fill-opacity:1"
       transform="translate(239.7539,355.5845)"
       id="g843"><path
         id="path845"
         style="fill:#daaa00;fill-opacity:1;fill-rule:nonzero;stroke:none"
         d="m 0,0 v 0 c 0.231,-1.532 2.487,-12.55 2.487,-12.55 h -4.954 z m -18.781,-25.609 h 13.094 l 0.995,4.522 H 4.65 l 1.242,-4.522 h 13.096 l -12.26,36 H -7.007 Z" /></g><g
       style="fill:#daaa00;fill-opacity:1"
       transform="translate(188.6074,365.9756)"
       id="g847"><path
         id="path849"
         style="fill:#daaa00;fill-opacity:1;fill-rule:nonzero;stroke:none"
         d="M 0,0 H 12.904 C 24.419,0 33.221,-5.288 33.221,-18.519 33.221,-29.178 26.046,-36 15.976,-36 L 0,-35.98 Z m 12.682,-25.662 h 0.844 c 4.155,0 7.234,2.492 7.234,7.189 0,5.058 -2.73,7.881 -7.291,7.881 h -0.787 z" /></g><g
       style="fill:#daaa00;fill-opacity:1"
       transform="translate(181.0703,364.8467)"
       id="g851"><path
         id="path853"
         style="fill:#daaa00;fill-opacity:1;fill-rule:nonzero;stroke:none"
         d="m 0,0 0.672,-5.906 c 0.158,-1.404 0.957,-4.768 -0.029,-4.318 -0.62,0.278 -1.128,1.805 -1.637,3.156 -0.257,0.689 -1.485,3.941 -1.805,4.181 -1.55,1.16 -5.419,2.467 -8.034,2.479 -7.938,0.03 -13.188,-5.824 -13.188,-16.214 0,-7.451 3.569,-16.39 12.643,-16.39 3.251,0 9.48,1.023 11.175,5.65 0.764,2.095 1.468,3.954 1.975,3.391 0.376,-0.413 -0.114,-2.09 -0.339,-2.993 -1.07,-4.289 -1.127,-5.589 -1.468,-5.756 -4.1,-2.058 -9.357,-2.736 -13.96,-2.736 -14.634,0 -19.687,8.538 -19.687,17.073 0,14.813 9.098,21.052 23.204,20.414 C -6.912,1.896 -3.343,1.263 0,0" /></g><g
       style="fill:#daaa00;fill-opacity:1"
       transform="translate(137.8613,364.1904)"
       id="g855"><path
         id="path857"
         style="fill:#daaa00;fill-opacity:1;fill-rule:nonzero;stroke:none"
         d="m 0,0 -2.342,0.817 c -0.788,0.708 0.171,0.905 0.171,0.905 0,0 3.386,-0.627 11.824,0.087 0,0 0.732,-0.145 0.224,-0.74 L 7.112,-0.115 C 5.307,-0.904 5.307,-0.452 5.307,-2.428 L 5.292,-20.774 c 0,-14.348 -14.593,-14.025 -17.438,-14.025 -1.351,0 -14.737,0 -14.737,11.518 v 19.42 c 0,3.386 0.362,3.296 -0.764,3.694 l -3.387,1.27 c 0,0 -0.57,0.813 0.45,0.761 2.765,-0.142 6.774,-0.735 16.195,-0.055 0,0 0.818,-0.199 0.28,-0.792 L -16.925,0.225 C -19.07,-0.735 -18.787,0 -18.843,-2.202 l 0.066,-19.149 c 0,-4.696 2.415,-10.508 10.018,-10.508 10.342,0 10.438,8.947 10.438,10.936 L 1.697,-1.954 C 1.808,-0.167 1.583,-0.677 0,0" /></g><path
       id="path859"
       style="fill:#daaa00;fill-opacity:1;fill-rule:nonzero;stroke:none"
       d="m 115.626,293.389 h -4.699 v 18.094 h 4.699 z" /><g
       style="fill:#daaa00;fill-opacity:1"
       transform="translate(121.1807,311.4829)"
       id="g861"><path
         id="path863"
         style="fill:#daaa00;fill-opacity:1;fill-rule:nonzero;stroke:none"
         d="m 0,0 h 4.699 l 8.625,-11.063 h 0.047 V 0 H 18.07 V -18.094 H 13.371 L 4.758,-7.008 H 4.699 V -18.094 H 0 Z" /></g><g
       style="fill:#daaa00;fill-opacity:1"
       transform="translate(151.6333,293.3887)"
       id="g865"><path
         id="path867"
         style="fill:#daaa00;fill-opacity:1;fill-rule:nonzero;stroke:none"
         d="M 0,0 H -4.699 V 14.11 H -8.59 v 3.984 H 3.891 V 14.11 H 0 Z" /></g><g
       style="fill:#daaa00;fill-opacity:1"
       transform="translate(164.0342,307.4985)"
       id="g869"><path
         id="path871"
         style="fill:#daaa00;fill-opacity:1;fill-rule:nonzero;stroke:none"
         d="M 0,0 V -3.024 H 5.309 V -7.008 H 0 v -3.117 H 5.602 V -14.11 H -4.699 V 3.984 H 5.602 V 0 Z" /></g><g
       style="fill:#daaa00;fill-opacity:1"
       transform="translate(179.6147,303.373)"
       id="g873"><path
         id="path875"
         style="fill:#daaa00;fill-opacity:1;fill-rule:nonzero;stroke:none"
         d="m 0,0 h 0.457 c 0.383,0 0.77,0.025 1.16,0.076 0.391,0.051 0.742,0.156 1.055,0.317 0.312,0.16 0.566,0.386 0.762,0.679 0.195,0.293 0.293,0.686 0.293,1.178 0,0.493 -0.098,0.887 -0.293,1.184 C 3.238,3.731 2.984,3.959 2.672,4.12 2.359,4.28 2.008,4.385 1.617,4.436 1.227,4.487 0.84,4.512 0.457,4.512 H 0 Z M 10.348,-9.984 H 4.488 L 0.059,-3.023 H 0 V -9.984 H -4.699 V 8.11 H 2.332 C 3.223,8.11 4.053,8 4.822,7.782 5.592,7.563 6.258,7.227 6.82,6.774 7.383,6.321 7.824,5.745 8.145,5.045 8.465,4.346 8.625,3.512 8.625,2.543 8.625,1.918 8.539,1.322 8.367,0.756 8.195,0.189 7.941,-0.32 7.605,-0.773 7.27,-1.227 6.855,-1.609 6.363,-1.922 5.871,-2.234 5.305,-2.449 4.664,-2.566 Z" /></g><g
       style="fill:#daaa00;fill-opacity:1"
       transform="translate(193.5605,311.4829)"
       id="g877"><path
         id="path879"
         style="fill:#daaa00;fill-opacity:1;fill-rule:nonzero;stroke:none"
         d="m 0,0 h 4.699 l 8.625,-11.063 h 0.047 V 0 H 18.07 V -18.094 H 13.371 L 4.758,-7.008 H 4.699 V -18.094 H 0 Z" /></g><g
       style="fill:#daaa00;fill-opacity:1"
       transform="translate(226.8301,306.8306)"
       id="g881"><path
         id="path883"
         style="fill:#daaa00;fill-opacity:1;fill-rule:nonzero;stroke:none"
         d="m 0,0 c -0.437,0.359 -0.922,0.648 -1.453,0.867 -0.531,0.219 -1.086,0.328 -1.664,0.328 -0.219,0 -0.446,-0.031 -0.68,-0.093 C -4.031,1.039 -4.248,0.945 -4.447,0.82 -4.646,0.695 -4.811,0.537 -4.939,0.346 -5.068,0.154 -5.133,-0.066 -5.133,-0.316 c 0,-0.266 0.071,-0.493 0.211,-0.68 0.141,-0.188 0.317,-0.348 0.527,-0.481 0.211,-0.132 0.438,-0.244 0.68,-0.334 0.242,-0.09 0.465,-0.166 0.668,-0.229 l 1.195,-0.363 c 0.633,-0.187 1.221,-0.412 1.764,-0.674 0.543,-0.261 1.014,-0.588 1.412,-0.978 0.399,-0.391 0.713,-0.854 0.944,-1.389 0.23,-0.535 0.345,-1.17 0.345,-1.904 0,-0.445 -0.029,-0.893 -0.088,-1.342 -0.058,-0.449 -0.16,-0.885 -0.304,-1.307 -0.145,-0.421 -0.338,-0.822 -0.58,-1.201 -0.243,-0.379 -0.543,-0.72 -0.903,-1.025 -0.711,-0.602 -1.513,-1.035 -2.408,-1.301 -0.894,-0.266 -1.803,-0.398 -2.725,-0.398 -1.14,0 -2.253,0.181 -3.339,0.545 -1.086,0.363 -2.094,0.869 -3.024,1.517 l 2.016,3.797 c 0.297,-0.258 0.605,-0.5 0.926,-0.727 0.32,-0.226 0.656,-0.425 1.007,-0.597 0.352,-0.172 0.715,-0.307 1.09,-0.405 0.375,-0.097 0.762,-0.146 1.16,-0.146 0.274,0 0.547,0.035 0.821,0.105 0.273,0.071 0.517,0.18 0.732,0.329 0.215,0.148 0.389,0.337 0.522,0.568 0.132,0.23 0.199,0.506 0.199,0.826 0,0.328 -0.102,0.606 -0.305,0.832 -0.203,0.227 -0.451,0.42 -0.744,0.58 -0.293,0.16 -0.604,0.291 -0.932,0.393 -0.328,0.101 -0.617,0.187 -0.867,0.258 -0.742,0.211 -1.414,0.429 -2.015,0.656 -0.602,0.226 -1.116,0.525 -1.541,0.896 -0.426,0.371 -0.756,0.838 -0.991,1.401 -0.234,0.562 -0.351,1.282 -0.351,2.157 0,0.914 0.154,1.746 0.463,2.496 0.308,0.75 0.74,1.388 1.295,1.916 0.554,0.527 1.212,0.935 1.974,1.224 0.762,0.289 1.596,0.434 2.502,0.434 0.453,0 0.93,-0.035 1.43,-0.106 0.5,-0.07 0.996,-0.17 1.488,-0.298 C -0.387,4.6 0.094,4.443 0.562,4.26 1.031,4.076 1.469,3.871 1.875,3.645 Z" /></g><g
       style="fill:#daaa00;fill-opacity:1"
       transform="translate(245.2422,304.498)"
       id="g885"><path
         id="path887"
         style="fill:#daaa00;fill-opacity:1;fill-rule:nonzero;stroke:none"
         d="M 0,0 V 6.985 H 4.699 V -11.109 H 0 v 7.418 h -6.797 v -7.418 h -4.699 V 6.985 h 4.699 V 0 Z" /></g><path
       id="path889"
       style="fill:#daaa00;fill-opacity:1;fill-rule:nonzero;stroke:none"
       d="m 260.314,293.389 h -4.699 v 18.094 h 4.699 z" /><g
       style="fill:#daaa00;fill-opacity:1"
       transform="translate(270.6875,303.1855)"
       id="g891"><path
         id="path893"
         style="fill:#daaa00;fill-opacity:1;fill-rule:nonzero;stroke:none"
         d="m 0,0 h 0.797 c 0.422,0 0.836,0.012 1.242,0.035 0.406,0.024 0.768,0.104 1.084,0.24 0.316,0.137 0.572,0.354 0.768,0.651 0.195,0.297 0.293,0.722 0.293,1.278 0,0.57 -0.09,1.011 -0.27,1.324 C 3.734,3.84 3.488,4.069 3.176,4.213 2.863,4.358 2.502,4.444 2.092,4.471 1.682,4.499 1.25,4.512 0.797,4.512 H 0 Z M -4.699,8.297 H 2.496 C 3.465,8.297 4.354,8.182 5.162,7.952 5.971,7.721 6.666,7.364 7.248,6.879 7.83,6.395 8.281,5.778 8.602,5.028 8.922,4.278 9.082,3.383 9.082,2.344 9.082,1.273 8.939,0.354 8.654,-0.416 8.369,-1.186 7.955,-1.822 7.412,-2.326 6.869,-2.83 6.199,-3.201 5.402,-3.439 4.605,-3.678 3.695,-3.797 2.672,-3.797 H 0 v -6 h -4.699 z" /></g><g
       style="fill:#daaa00;fill-opacity:1"
       transform="translate(297.8467,302.3164)"
       id="g895"><path
         id="path897"
         style="fill:#daaa00;fill-opacity:1;fill-rule:nonzero;stroke:none"
         d="m 0,0 h -0.033 l -1.389,-4.116 h 2.794 z m -2.351,-6.686 -0.887,-2.242 h -3.565 l 4.971,12.92 H 1.833 L 6.702,-8.928 H 3.121 l -0.845,2.242 z" /></g><g
       style="fill:#daaa00;fill-opacity:1"
       transform="translate(306.1914,306.3081)"
       id="g899"><path
         id="path901"
         style="fill:#daaa00;fill-opacity:1;fill-rule:nonzero;stroke:none"
         d="M 0,0 H 3.355 L 9.514,-7.898 H 9.547 V 0 h 3.355 V -12.919 H 9.547 l -6.15,7.916 H 3.355 v -7.916 H 0 Z" /></g><g
       style="fill:#daaa00;fill-opacity:1"
       transform="translate(325.335,296.2344)"
       id="g903"><path
         id="path905"
         style="fill:#daaa00;fill-opacity:1;fill-rule:nonzero;stroke:none"
         d="m 0,0 h 0.762 c 0.502,0 0.977,0.069 1.426,0.209 0.449,0.139 0.842,0.357 1.18,0.652 0.337,0.296 0.607,0.671 0.808,1.125 0.2,0.455 0.301,0.998 0.301,1.628 0,0.58 -0.091,1.095 -0.272,1.544 C 4.023,5.607 3.77,5.984 3.443,6.292 3.117,6.599 2.729,6.832 2.28,6.99 1.831,7.149 1.336,7.229 0.795,7.229 H 0 Z M -3.355,10.074 H 1.406 C 2.003,10.074 2.58,9.999 3.138,9.848 3.695,9.697 4.219,9.484 4.707,9.208 5.194,8.932 5.64,8.598 6.041,8.208 6.443,7.817 6.786,7.383 7.07,6.902 7.354,6.423 7.576,5.905 7.735,5.351 7.895,4.795 7.974,4.217 7.974,3.614 7.974,3.012 7.895,2.434 7.735,1.878 7.576,1.322 7.354,0.806 7.066,0.326 6.779,-0.154 6.435,-0.589 6.033,-0.979 5.631,-1.369 5.187,-1.703 4.702,-1.979 4.217,-2.256 3.695,-2.469 3.138,-2.619 2.58,-2.77 2.003,-2.846 1.406,-2.846 h -4.761 z" /></g><g
       style="fill:#daaa00;fill-opacity:1"
       transform="translate(123.8647,277.4121)"
       id="g907"><path
         id="path909"
         style="fill:#daaa00;fill-opacity:1;fill-rule:nonzero;stroke:none"
         d="M 0,0 C -0.242,0.328 -0.518,0.615 -0.826,0.861 -1.135,1.107 -1.467,1.314 -1.822,1.482 -2.178,1.65 -2.551,1.777 -2.941,1.863 -3.332,1.949 -3.727,1.992 -4.125,1.992 -4.844,1.992 -5.5,1.863 -6.094,1.605 -6.687,1.348 -7.195,0.992 -7.617,0.539 -8.039,0.086 -8.367,-0.445 -8.602,-1.055 -8.836,-1.664 -8.953,-2.32 -8.953,-3.023 c 0,-0.719 0.117,-1.379 0.351,-1.981 0.235,-0.601 0.567,-1.119 0.997,-1.553 0.429,-0.433 0.945,-0.773 1.546,-1.019 0.602,-0.246 1.27,-0.369 2.004,-0.369 0.383,0 0.764,0.045 1.143,0.134 0.379,0.09 0.742,0.219 1.09,0.387 0.347,0.168 0.676,0.369 0.984,0.604 0.309,0.234 0.588,0.5 0.838,0.797 v -5.637 c -0.391,-0.117 -0.758,-0.229 -1.102,-0.334 -0.343,-0.106 -0.679,-0.195 -1.007,-0.27 -0.329,-0.074 -0.659,-0.132 -0.991,-0.175 -0.332,-0.043 -0.681,-0.065 -1.048,-0.065 -1.266,0 -2.479,0.231 -3.639,0.691 -1.16,0.461 -2.213,1.118 -3.158,1.969 -1,0.906 -1.735,1.936 -2.203,3.088 -0.469,1.152 -0.704,2.404 -0.704,3.756 0,1.242 0.227,2.434 0.68,3.574 0.453,1.141 1.117,2.156 1.992,3.047 0.446,0.453 0.934,0.861 1.465,1.225 0.531,0.363 1.092,0.672 1.682,0.925 0.59,0.254 1.201,0.448 1.834,0.581 0.633,0.132 1.265,0.199 1.898,0.199 0.758,0 1.488,-0.08 2.192,-0.24 C -1.406,6.15 -0.703,5.926 0,5.637 Z" /></g><g
       style="fill:#daaa00;fill-opacity:1"
       transform="translate(136.7573,277.8926)"
       id="g911"><path
         id="path913"
         style="fill:#daaa00;fill-opacity:1;fill-rule:nonzero;stroke:none"
         d="m 0,0 h -0.047 l -1.945,-5.766 h 3.914 z m -3.293,-9.363 -1.242,-3.141 H -9.527 L -2.566,5.59 H 2.566 L 9.387,-12.504 H 4.371 l -1.183,3.141 z" /></g><g
       style="fill:#daaa00;fill-opacity:1"
       transform="translate(154.4087,275.373)"
       id="g915"><path
         id="path917"
         style="fill:#daaa00;fill-opacity:1;fill-rule:nonzero;stroke:none"
         d="m 0,0 h 0.457 c 0.383,0 0.77,0.025 1.16,0.076 0.391,0.051 0.742,0.156 1.055,0.317 0.312,0.16 0.566,0.386 0.762,0.679 0.195,0.293 0.293,0.686 0.293,1.178 0,0.492 -0.098,0.887 -0.293,1.184 C 3.238,3.73 2.984,3.959 2.672,4.119 2.359,4.279 2.008,4.385 1.617,4.436 1.227,4.486 0.84,4.512 0.457,4.512 H 0 Z M 10.348,-9.984 H 4.488 L 0.059,-3.023 H 0 V -9.984 H -4.699 V 8.109 H 2.332 C 3.223,8.109 4.053,8 4.822,7.781 5.592,7.562 6.258,7.227 6.82,6.773 7.383,6.32 7.824,5.744 8.145,5.045 8.465,4.346 8.625,3.512 8.625,2.543 8.625,1.918 8.539,1.322 8.367,0.756 8.195,0.189 7.941,-0.32 7.605,-0.773 7.27,-1.227 6.855,-1.609 6.363,-1.922 5.871,-2.234 5.305,-2.449 4.664,-2.566 Z" /></g><g
       style="fill:#daaa00;fill-opacity:1"
       transform="translate(172.8208,279.498)"
       id="g919"><path
         id="path921"
         style="fill:#daaa00;fill-opacity:1;fill-rule:nonzero;stroke:none"
         d="M 0,0 V -3.023 H 5.309 V -7.008 H 0 v -3.117 h 5.602 v -3.984 H -4.699 V 3.984 H 5.602 V 0 Z" /></g><g
       style="fill:#daaa00;fill-opacity:1"
       transform="translate(188.5122,279.498)"
       id="g923"><path
         id="path925"
         style="fill:#daaa00;fill-opacity:1;fill-rule:nonzero;stroke:none"
         d="M 0,0 V -3.023 H 5.309 V -7.008 H 0 v -3.117 h 5.602 v -3.984 H -4.699 V 3.984 H 5.602 V 0 Z" /></g><g
       style="fill:#daaa00;fill-opacity:1"
       transform="translate(203.9634,275.373)"
       id="g927"><path
         id="path929"
         style="fill:#daaa00;fill-opacity:1;fill-rule:nonzero;stroke:none"
         d="m 0,0 h 0.457 c 0.383,0 0.77,0.025 1.16,0.076 0.391,0.051 0.742,0.156 1.055,0.317 0.312,0.16 0.566,0.386 0.762,0.679 0.195,0.293 0.293,0.686 0.293,1.178 0,0.492 -0.098,0.887 -0.293,1.184 C 3.238,3.73 2.984,3.959 2.672,4.119 2.359,4.279 2.008,4.385 1.617,4.436 1.227,4.486 0.84,4.512 0.457,4.512 H 0 Z M 10.348,-9.984 H 4.488 L 0.059,-3.023 H 0 V -9.984 H -4.699 V 8.109 H 2.332 C 3.223,8.109 4.053,8 4.822,7.781 5.592,7.562 6.258,7.227 6.82,6.773 7.383,6.32 7.824,5.744 8.145,5.045 8.465,4.346 8.625,3.512 8.625,2.543 8.625,1.918 8.539,1.322 8.367,0.756 8.195,0.189 7.941,-0.32 7.605,-0.773 7.27,-1.227 6.855,-1.609 6.363,-1.922 5.871,-2.234 5.305,-2.449 4.664,-2.566 Z" /></g><g
       style="fill:#daaa00;fill-opacity:1"
       transform="translate(241.5527,277.4121)"
       id="g931"><path
         id="path933"
         style="fill:#daaa00;fill-opacity:1;fill-rule:nonzero;stroke:none"
         d="M 0,0 C -0.242,0.328 -0.518,0.615 -0.826,0.861 -1.135,1.107 -1.467,1.314 -1.822,1.482 -2.178,1.65 -2.551,1.777 -2.941,1.863 -3.332,1.949 -3.727,1.992 -4.125,1.992 -4.844,1.992 -5.5,1.863 -6.094,1.605 -6.687,1.348 -7.195,0.992 -7.617,0.539 -8.039,0.086 -8.367,-0.445 -8.602,-1.055 -8.836,-1.664 -8.953,-2.32 -8.953,-3.023 c 0,-0.719 0.117,-1.379 0.351,-1.981 0.235,-0.601 0.567,-1.119 0.997,-1.553 0.429,-0.433 0.945,-0.773 1.546,-1.019 0.602,-0.246 1.27,-0.369 2.004,-0.369 0.383,0 0.764,0.045 1.143,0.134 0.379,0.09 0.742,0.219 1.09,0.387 0.347,0.168 0.676,0.369 0.984,0.604 0.309,0.234 0.588,0.5 0.838,0.797 v -5.637 c -0.391,-0.117 -0.758,-0.229 -1.102,-0.334 -0.343,-0.106 -0.679,-0.195 -1.007,-0.27 -0.329,-0.074 -0.659,-0.132 -0.991,-0.175 -0.332,-0.043 -0.681,-0.065 -1.048,-0.065 -1.266,0 -2.479,0.231 -3.639,0.691 -1.16,0.461 -2.213,1.118 -3.158,1.969 -1,0.906 -1.735,1.936 -2.203,3.088 -0.469,1.152 -0.704,2.404 -0.704,3.756 0,1.242 0.227,2.434 0.68,3.574 0.453,1.141 1.117,2.156 1.992,3.047 0.446,0.453 0.934,0.861 1.465,1.225 0.531,0.363 1.092,0.672 1.682,0.925 0.59,0.254 1.201,0.448 1.834,0.581 0.633,0.132 1.265,0.199 1.898,0.199 0.758,0 1.488,-0.08 2.192,-0.24 C -1.406,6.15 -0.703,5.926 0,5.637 Z" /></g><g
       style="fill:#daaa00;fill-opacity:1"
       transform="translate(251.541,279.498)"
       id="g935"><path
         id="path937"
         style="fill:#daaa00;fill-opacity:1;fill-rule:nonzero;stroke:none"
         d="M 0,0 V -3.023 H 5.309 V -7.008 H 0 v -3.117 h 5.602 v -3.984 H -4.699 V 3.984 H 5.602 V 0 Z" /></g><g
       style="fill:#daaa00;fill-opacity:1"
       transform="translate(262.4199,283.4824)"
       id="g939"><path
         id="path941"
         style="fill:#daaa00;fill-opacity:1;fill-rule:nonzero;stroke:none"
         d="m 0,0 h 4.699 l 8.625,-11.063 h 0.047 V 0 H 18.07 V -18.094 H 13.371 L 4.758,-7.008 H 4.699 V -18.094 H 0 Z" /></g><g
       style="fill:#daaa00;fill-opacity:1"
       transform="translate(292.873,265.3887)"
       id="g943"><path
         id="path945"
         style="fill:#daaa00;fill-opacity:1;fill-rule:nonzero;stroke:none"
         d="M 0,0 H -4.699 V 14.109 H -8.59 v 3.985 H 3.891 V 14.109 H 0 Z" /></g><g
       style="fill:#daaa00;fill-opacity:1"
       transform="translate(305.2734,279.498)"
       id="g947"><path
         id="path949"
         style="fill:#daaa00;fill-opacity:1;fill-rule:nonzero;stroke:none"
         d="M 0,0 V -3.023 H 5.309 V -7.008 H 0 v -3.117 h 5.602 v -3.984 H -4.699 V 3.984 H 5.602 V 0 Z" /></g><g
       style="fill:#daaa00;fill-opacity:1"
       transform="translate(320.8545,275.373)"
       id="g951"><path
         id="path953"
         style="fill:#daaa00;fill-opacity:1;fill-rule:nonzero;stroke:none"
         d="m 0,0 h 0.457 c 0.383,0 0.77,0.025 1.16,0.076 0.391,0.051 0.742,0.156 1.055,0.317 0.312,0.16 0.566,0.386 0.762,0.679 0.195,0.293 0.293,0.686 0.293,1.178 0,0.492 -0.098,0.887 -0.293,1.184 C 3.238,3.73 2.984,3.959 2.672,4.119 2.359,4.279 2.008,4.385 1.617,4.436 1.227,4.486 0.84,4.512 0.457,4.512 H 0 Z M 10.348,-9.984 H 4.488 L 0.059,-3.023 H 0 V -9.984 H -4.699 V 8.109 H 2.332 C 3.223,8.109 4.053,8 4.822,7.781 5.592,7.562 6.258,7.227 6.82,6.773 7.383,6.32 7.824,5.744 8.145,5.045 8.465,4.346 8.625,3.512 8.625,2.543 8.625,1.918 8.539,1.322 8.367,0.756 8.195,0.189 7.941,-0.32 7.605,-0.773 7.27,-1.227 6.855,-1.609 6.363,-1.922 5.871,-2.234 5.305,-2.449 4.664,-2.566 Z" /></g><path
       id="path955"
       style="fill:#daaa00;fill-opacity:1;fill-rule:nonzero;stroke:none"
       d="M 333.667,320.5 H 110.983 v 1.5 h 222.684 z" /></g></svg>