<?xml version="1.0" encoding="UTF-8" standalone="no"?>
<svg
   xmlns:dc="http://purl.org/dc/elements/1.1/"
   xmlns:cc="http://creativecommons.org/ns#"
   xmlns:rdf="http://www.w3.org/1999/02/22-rdf-syntax-ns#"
   xmlns:svg="http://www.w3.org/2000/svg"
   xmlns="http://www.w3.org/2000/svg"
   id="svg8"
   version="1.1"
   viewBox="0 0 102.1375 28.447334"
   height="107.51746"
   width="386.03152">
  <defs
     id="defs2" />
  <metadata
     id="metadata5">
    <rdf:RDF>
      <cc:Work
         rdf:about="">
        <dc:format>image/svg+xml</dc:format>
        <dc:type
           rdf:resource="http://purl.org/dc/dcmitype/StillImage" />
        <dc:title></dc:title>
      </cc:Work>
    </rdf:RDF>
  </metadata>
  <g
     transform="translate(-0.32328696,-266.89056)"
     id="layer1">
    <flowRoot
       transform="matrix(0.67226485,0,0,0.70190149,-48.294907,173.68465)"
       style="font-style:normal;font-weight:normal;font-size:40px;line-height:1.25;font-family:sans-serif;letter-spacing:0px;word-spacing:0px;fill:#5233ff;fill-opacity:1;stroke:none"
       id="flowRoot832"
       xml:space="preserve"><flowRegion
         style="fill:#5233ff;fill-opacity:1"
         id="flowRegion834"><rect
           style="fill:#5233ff;fill-opacity:1"
           y="124.51969"
           x="72"
           height="103"
           width="311"
           id="rect836" /></flowRegion><flowPara
         style="font-style:normal;font-variant:normal;font-weight:normal;font-stretch:normal;font-size:53.33333588px;font-family:Coolvetica;-inkscape-font-specification:Coolvetica;letter-spacing:0px;fill:#5233ff;fill-opacity:1"
         id="flowPara838">Safer</flowPara></flowRoot>    <path
       id="path819"
       d="m 86.086164,268.05196 c -7.672643,0.78325 -13.295628,7.26586 -12.559282,14.47942 0.268521,2.59012 1.350059,5.03705 3.107372,7.02957 l -1.044465,3.47031 4.519268,-0.80094 c 2.428102,1.20122 5.898791,2.22208 8.643653,1.94421 7.672625,-0.78326 13.29563,-7.26586 12.55929,-14.47941 -0.73633,-7.21355 -7.553201,-12.42637 -15.225836,-11.64316 z"
       style="fill:#2a7fff;fill-opacity:1;stroke:#2a7fff;stroke-width:2.06828284;stroke-miterlimit:4;stroke-dasharray:none;paint-order:stroke fill markers" />
    <path
       id="path817"
       d="m 84.613537,273.29269 v 5.26565 H 79.34789 v 5.26565 h 5.265647 v 5.26564 h 5.265639 v -5.26564 h 5.265646 v -5.26565 h -5.265646 v -5.26565 z"
       style="fill:#ffffff;stroke:#ffffff;stroke-width:0.26328203px;stroke-linecap:butt;stroke-linejoin:miter;stroke-opacity:1" />
    <g
       id="flowRoot828"
       style="font-style:normal;font-weight:normal;font-size:40px;line-height:1.25;font-family:sans-serif;letter-spacing:0px;word-spacing:0px;fill:#5233ff;fill-opacity:1;stroke:none"
       transform="matrix(0.67226485,0,0,0.70190149,-48.294907,173.68465)"
       aria-label="Safer">
      <path
         id="path884"
         style="font-style:normal;font-variant:normal;font-weight:normal;font-stretch:normal;font-size:53.33333588px;font-family:Coolvetica;-inkscape-font-specification:Coolvetica;letter-spacing:0px;fill:#5233ff;fill-opacity:1"
         d="m 93.280001,147.13287 q -0.266667,-2.72 -1.973333,-4.05334 -1.706667,-1.33333 -5.120001,-1.33333 -6.293333,0 -6.293333,4.32 0,1.54667 1.28,2.61333 1.333333,1.01334 4.213333,1.70667 3.413334,0.8 5.920001,1.49333 2.506666,0.69334 4.586666,1.6 1.173334,0.48 2.186667,1.22667 1.066667,0.69333 1.76,1.76 0.746669,1.06667 1.173329,2.56 0.42667,1.49333 0.42667,3.62667 0,2.56 -1.06667,4.53333 -1.066662,1.97333 -2.879995,3.36 -1.813334,1.33333 -4.266667,2.02667 -2.453334,0.74666 -5.173334,0.74666 -7.733334,0 -11.626667,-2.98666 Q 72.533333,167.3462 72.32,161.47953 h 7.146667 q 0.05333,2.72 2.186667,4.32 2.186667,1.54667 5.44,1.54667 3.52,0 5.333334,-1.28 1.813333,-1.28 1.813333,-3.46667 0,-0.85333 -0.213333,-1.54666 -0.213334,-0.74667 -0.853334,-1.33334 -0.586666,-0.58666 -1.653333,-1.01333 -1.066667,-0.48 -2.773334,-0.85333 -4.053333,-0.85334 -7.04,-1.70667 -2.933333,-0.90667 -4.853333,-2.18667 -1.920001,-1.33333 -2.826667,-3.2 Q 73.12,148.89287 73.12,146.01287 q 0,-2.18667 0.8,-4.10667 0.8,-1.92 2.453334,-3.30667 1.653333,-1.44 4.053333,-2.24 2.453334,-0.85333 5.76,-0.85333 3.2,0 5.760001,0.85333 2.56,0.8 4.373333,2.34667 1.866667,1.49333 2.88,3.68 1.013329,2.13333 1.119999,4.74667 z" />
      <path
         id="path886"
         style="font-style:normal;font-variant:normal;font-weight:normal;font-stretch:normal;font-size:53.33333588px;font-family:Coolvetica;-inkscape-font-specification:Coolvetica;letter-spacing:0px;fill:#5233ff;fill-opacity:1"
         d="m 119.125,159.23953 q -0.53333,0.53334 -1.54666,0.85334 -1.01334,0.32 -2.93334,0.69333 -2.98666,0.58667 -4.10666,1.49333 -1.12001,0.90667 -1.12001,2.61334 0,2.93333 3.36001,2.93333 1.33333,0 2.45333,-0.42667 1.17333,-0.48 1.97333,-1.22666 0.85334,-0.8 1.33334,-1.81334 0.53333,-1.06666 0.53333,-2.24 z m 0.48,12.85334 q -0.32,-1.01334 -0.42666,-2.34667 -1.22667,1.38667 -3.25334,2.24 -2.02666,0.8 -4.69333,0.8 -4.53334,0 -6.66667,-1.97333 -2.08,-2.02667 -2.08,-5.22667 0,-2.82667 0.90667,-4.48 0.90666,-1.70667 2.50666,-2.66667 1.6,-0.96 3.78667,-1.38666 2.24,-0.48 4.85334,-0.85334 2.61333,-0.37333 3.52,-0.96 0.90666,-0.64 0.90666,-2.02666 0,-1.28 -1.22666,-1.97334 -1.17334,-0.74666 -3.2,-0.74666 -2.4,0 -3.46667,1.06666 -1.01334,1.06667 -1.28,2.82667 h -6.45334 q 0.0533,-2.02667 0.64,-3.73333 0.64,-1.70667 1.97334,-2.93334 1.38666,-1.22666 3.57333,-1.86666 2.18667,-0.69334 5.33334,-0.69334 3.09333,0 5.22666,0.69334 2.18667,0.69333 3.46667,2.02666 1.33333,1.28 1.92,3.25334 0.58667,1.92 0.58667,4.37333 v 16.58667 z" />
      <path
         id="path888"
         style="font-style:normal;font-variant:normal;font-weight:normal;font-stretch:normal;font-size:53.33333588px;font-family:Coolvetica;-inkscape-font-specification:Coolvetica;letter-spacing:0px;fill:#5233ff;fill-opacity:1"
         d="m 130.16917,172.09287 v -21.33334 h -3.89334 v -4.90666 h 3.89334 q 0,-9.6 11.14666,-9.6 v 5.6 q -1.33333,0 -2.18666,0.21333 -0.8,0.16 -1.28,0.64 -0.48,0.48 -0.69334,1.28 -0.16,0.74667 -0.16,1.86667 h 4.48 v 4.90666 h -4.48 v 21.33334 z" />
      <path
         id="path890"
         style="font-style:normal;font-variant:normal;font-weight:normal;font-stretch:normal;font-size:53.33333588px;font-family:Coolvetica;-inkscape-font-specification:Coolvetica;letter-spacing:0px;fill:#5233ff;fill-opacity:1"
         d="m 158.16667,156.41287 q -0.0533,-1.44 -0.53334,-2.50667 -0.42666,-1.12 -1.17333,-1.81333 -0.74667,-0.74667 -1.70667,-1.06667 -0.96,-0.37333 -1.97333,-0.37333 -2.08,0 -3.62667,1.54666 -1.49333,1.49334 -1.70666,4.21334 z m -10.93334,4.37333 q 0.16,2.98667 1.70667,4.74667 1.6,1.76 4.16,1.76 1.70667,0 2.98667,-0.74667 1.33333,-0.8 1.70666,-2.18667 H 164.94 q -1.22667,4.05334 -4.26667,6.24 -3.04,2.18667 -7.25333,2.18667 -13.12,0 -13.12,-14.29333 0,-3.04 0.85333,-5.49334 0.85334,-2.45333 2.45334,-4.21333 1.65333,-1.76 4,-2.66667 2.34666,-0.96 5.38666,-0.96 6.08,0 9.17334,3.89334 3.14666,3.89333 3.14666,11.73333 z" />
      <path
         id="path892"
         style="font-style:normal;font-variant:normal;font-weight:normal;font-stretch:normal;font-size:53.33333588px;font-family:Coolvetica;-inkscape-font-specification:Coolvetica;letter-spacing:0px;fill:#5233ff;fill-opacity:1"
         d="m 167.44917,172.09287 v -26.24 h 6.50667 v 3.14666 q 0.85333,-1.33333 1.76,-2.08 0.96,-0.74666 1.92,-1.12 1.01333,-0.42666 2.02667,-0.53333 1.01333,-0.10667 2.08,-0.10667 h 0.90667 v 7.09334 q -0.96,-0.16 -1.92001,-0.16 -6.34666,0 -6.34666,6.34666 v 13.65334 z" />
    </g>
    <path
       style="fill:#2a7fff;fill-opacity:1;stroke:#2a7fff;stroke-width:2.16799998;stroke-miterlimit:4;stroke-dasharray:none;stroke-dashoffset:0;paint-order:stroke fill markers"
       d="m 86.086164,268.05196 c -7.672643,0.78325 -13.295628,7.26586 -12.559282,14.47942 0.268521,2.59012 1.350059,5.03705 3.107372,7.02957 l -1.044465,3.47031 4.519268,-0.80094 c 2.428102,1.20122 5.898791,2.22208 8.643653,1.94421 7.672625,-0.78326 13.29563,-7.26586 12.55929,-14.47941 -0.73633,-7.21355 -7.553201,-12.42637 -15.225836,-11.64316 z"
       id="path830" />
    <path
       style="fill:#ffffff;stroke:#ffffff;stroke-width:0.26328203px;stroke-linecap:butt;stroke-linejoin:miter;stroke-opacity:1"
       d="m 84.613537,273.29269 v 5.26565 H 79.34789 v 5.26565 h 5.265647 v 5.26564 h 5.265639 v -5.26564 h 5.265646 v -5.26565 h -5.265646 v -5.26565 z"
       id="path832" />
  </g>
</svg>
